<svg width="60" height="48" viewBox="0 0 60 48" fill="none" xmlns="http://www.w3.org/2000/svg">
<g clip-path="url(#clip0)">
<path d="M19.5002 33C19.2761 33 19.052 33.0328 18.8383 33.1022C17.6233 33.4969 16.3455 33.75 15.0002 33.75C13.6548 33.75 12.377 33.4969 11.1611 33.1022C10.9473 33.0328 10.7242 33 10.5002 33C4.68203 33 -0.030786 37.7325 0.000151451 43.5581C0.0132765 46.02 2.03734 48 4.50015 48H25.5002C27.963 48 29.987 46.02 30.0002 43.5581C30.0311 37.7325 25.3183 33 19.5002 33ZM15.0002 30C19.9708 30 24.0002 25.9706 24.0002 21C24.0002 16.0294 19.9708 12 15.0002 12C10.0295 12 6.00015 16.0294 6.00015 21C6.00015 25.9706 10.0295 30 15.0002 30ZM55.5001 0H19.5002C17.0186 0 15.0002 2.08594 15.0002 4.64906V8C17.1958 8 18.2283 8.63563 20.0002 9.66875V5H55.0001V34H48.0001V27H43.0002V34H29.8527C31.6433 35.5647 31.9577 36.6309 32.5736 39H55.5001C57.9817 39 60.0001 36.9141 60.0001 34.3509V4.64906C60.0001 2.08594 57.9817 0 55.5001 0Z" fill="#616161"/>
</g>
<defs>
<clipPath id="clip0">
<rect width="60" height="48" fill="white"/>
</clipPath>
</defs>
</svg>
