<svg width="60" height="60" viewBox="0 0 60 60" fill="none" xmlns="http://www.w3.org/2000/svg">
<path d="M52.5 15.625C52.5 13.4701 51.644 11.4035 50.1202 9.87976C48.5965 8.35602 46.5299 7.5 44.375 7.5H15.625C13.4701 7.5 11.4035 8.35602 9.87976 9.87976C8.35602 11.4035 7.5 13.4701 7.5 15.625V44.375C7.5 46.5299 8.35602 48.5965 9.87976 50.1202C11.4035 51.644 13.4701 52.5 15.625 52.5H30.055C29.3057 51.3312 28.71 49.0709 28.2825 47.75H15.625C14.4647 47.75 13.5 47 13 46.5C12.5 46 12.25 45.5353 12.25 44.375V21.25H47.75V28.2825C49.0709 28.71 51.3312 29.3057 52.5 30.055V15.625ZM15.625 12.25H44.375C46.79 12.25 47.75 13.21 47.75 15.625V17.5H12.25V15.625C12.25 13.21 13.21 12.25 15.625 12.25Z" fill="#616161"/>
<path d="M57.5 43.75C57.5 40.1033 56.0513 36.6059 53.4727 34.0273C50.8941 31.4487 47.3967 30 43.75 30C40.1033 30 36.6059 31.4487 34.0273 34.0273C31.4487 36.6059 30 40.1033 30 43.75C30 47.3967 31.4487 50.8941 34.0273 53.4727C36.6059 56.0513 40.1033 57.5 43.75 57.5C47.3967 57.5 50.8941 56.0513 53.4727 53.4727C56.0513 50.8941 57.5 47.3967 57.5 43.75ZM42.1875 50.9375C42.1875 50.5231 42.3521 50.1257 42.6451 49.8326C42.9382 49.5396 43.3356 49.375 43.75 49.375C44.1644 49.375 44.5618 49.5396 44.8549 49.8326C45.1479 50.1257 45.3125 50.5231 45.3125 50.9375C45.3125 51.3519 45.1479 51.7493 44.8549 52.0424C44.5618 52.3354 44.1644 52.5 43.75 52.5C43.3356 52.5 42.9382 52.3354 42.6451 52.0424C42.3521 51.7493 42.1875 51.3519 42.1875 50.9375ZM39.1175 39.57C39.09 36.73 41.13 34.685 43.75 34.685C46.3275 34.685 48.3825 36.8 48.3825 39.56C48.3825 40.8325 48.0075 41.6625 47.0625 42.79L46.7275 43.1775L46.0625 43.9025L45.81 44.1925L45.5975 44.4525C45.1475 45.0325 45 45.42 45 45.9275C45 46.259 44.8683 46.577 44.6339 46.8114C44.3995 47.0458 44.0815 47.1775 43.75 47.1775C43.4185 47.1775 43.1005 47.0458 42.8661 46.8114C42.6317 46.577 42.5 46.259 42.5 45.9275C42.5 44.635 42.8775 43.795 43.8375 42.6525L44.1775 42.26L44.84 41.535L45.09 41.2525L45.3225 40.9625C45.7475 40.4125 45.8825 40.0375 45.8825 39.56C45.8825 38.165 44.9325 37.185 43.75 37.185C42.515 37.185 41.6025 38.1 41.6175 39.5475C41.6191 39.7117 41.5884 39.8745 41.5271 40.0268C41.4658 40.1791 41.3751 40.3178 41.2602 40.435C41.1453 40.5523 41.0084 40.6457 40.8574 40.7101C40.7064 40.7744 40.5442 40.8084 40.38 40.81C40.2158 40.8116 40.053 40.7809 39.9007 40.7196C39.7484 40.6583 39.6097 40.5676 39.4925 40.4527C39.3752 40.3378 39.2818 40.2009 39.2174 40.0499C39.1531 39.8989 39.1191 39.7367 39.1175 39.5725V39.57Z" fill="#616161"/>
</svg>
