<svg width="16" height="16" viewBox="0 0 16 16" fill="none" xmlns="http://www.w3.org/2000/svg">
<path fill-rule="evenodd" clip-rule="evenodd" d="M7.89628 14.4414C5.43507 14.4414 3.33325 14.0584 3.33325 12.5245C3.33325 10.9907 5.42174 9.57471 7.89628 9.57471C10.3575 9.57471 12.4593 10.9769 12.4593 12.5108C12.4593 14.044 10.3708 14.4414 7.89628 14.4414Z" stroke="#3A3A3A" stroke-width="1.5" stroke-linecap="round" stroke-linejoin="round"/>
<path fill-rule="evenodd" clip-rule="evenodd" d="M7.89142 7.44919C9.50657 7.44919 10.8157 6.1401 10.8157 4.52495C10.8157 2.90979 9.50657 1.6001 7.89142 1.6001C6.27627 1.6001 4.96657 2.90979 4.96657 4.52495C4.96112 6.13464 6.26112 7.44373 7.87081 7.44919C7.87808 7.44919 7.88475 7.44919 7.89142 7.44919Z" stroke="#FFB300" stroke-width="1.5" stroke-linecap="round" stroke-linejoin="round"/>
</svg>
