<svg width="60" height="60" viewBox="0 0 60 60" fill="none" xmlns="http://www.w3.org/2000/svg">
<path d="M30 35C30.4945 35 30.9778 34.8534 31.3889 34.5787C31.8 34.304 32.1205 33.9135 32.3097 33.4567C32.4989 32.9999 32.5484 32.4972 32.452 32.0123C32.3555 31.5273 32.1174 31.0819 31.7678 30.7322C31.4181 30.3826 30.9727 30.1445 30.4877 30.048C30.0028 29.9516 29.5001 30.0011 29.0433 30.1903C28.5865 30.3795 28.196 30.7 27.9213 31.1111C27.6466 31.5222 27.5 32.0055 27.5 32.5C27.5 33.163 27.7634 33.7989 28.2322 34.2678C28.7011 34.7366 29.337 35 30 35ZM42.5 35C42.9945 35 43.4778 34.8534 43.8889 34.5787C44.3 34.304 44.6205 33.9135 44.8097 33.4567C44.9989 32.9999 45.0484 32.4972 44.952 32.0123C44.8555 31.5273 44.6174 31.0819 44.2678 30.7322C43.9181 30.3826 43.4727 30.1445 42.9877 30.048C42.5028 29.9516 42.0001 30.0011 41.5433 30.1903C41.0865 30.3795 40.696 30.7 40.4213 31.1111C40.1466 31.5222 40 32.0055 40 32.5C40 33.163 40.2634 33.7989 40.7322 34.2678C41.2011 34.7366 41.837 35 42.5 35ZM30 45C30.4945 45 30.9778 44.8534 31.3889 44.5787C31.8 44.304 32.1205 43.9135 32.3097 43.4567C32.4989 42.9999 32.5484 42.4972 32.452 42.0123C32.3555 41.5273 32.1174 41.0819 31.7678 40.7322C31.4181 40.3826 30.9727 40.1445 30.4877 40.048C30.0028 39.9516 29.5001 40.0011 29.0433 40.1903C28.5865 40.3795 28.196 40.7 27.9213 41.1111C27.6466 41.5222 27.5 42.0056 27.5 42.5C27.5 43.163 27.7634 43.7989 28.2322 44.2678C28.7011 44.7366 29.337 45 30 45ZM42.5 45C42.9945 45 43.4778 44.8534 43.8889 44.5787C44.3 44.304 44.6205 43.9135 44.8097 43.4567C44.9989 42.9999 45.0484 42.4972 44.952 42.0123C44.8555 41.5273 44.6174 41.0819 44.2678 40.7322C43.9181 40.3826 43.4727 40.1445 42.9877 40.048C42.5028 39.9516 42.0001 40.0011 41.5433 40.1903C41.0865 40.3795 40.696 40.7 40.4213 41.1111C40.1466 41.5222 40 42.0056 40 42.5C40 43.163 40.2634 43.7989 40.7322 44.2678C41.2011 44.7366 41.837 45 42.5 45ZM17.5 35C17.9945 35 18.4778 34.8534 18.8889 34.5787C19.3 34.304 19.6205 33.9135 19.8097 33.4567C19.9989 32.9999 20.0484 32.4972 19.952 32.0123C19.8555 31.5273 19.6174 31.0819 19.2678 30.7322C18.9181 30.3826 18.4727 30.1445 17.9877 30.048C17.5028 29.9516 17.0001 30.0011 16.5433 30.1903C16.0865 30.3795 15.696 30.7 15.4213 31.1111C15.1466 31.5222 15 32.0055 15 32.5C15 33.163 15.2634 33.7989 15.7322 34.2678C16.2011 34.7366 16.837 35 17.5 35ZM47.5 10H45V7.5C45 6.83696 44.7366 6.20107 44.2678 5.73223C43.7989 5.26339 43.163 5 42.5 5C41.837 5 41.2011 5.26339 40.7322 5.73223C40.2634 6.20107 40 6.83696 40 7.5V10H20V7.5C20 6.83696 19.7366 6.20107 19.2678 5.73223C18.7989 5.26339 18.163 5 17.5 5C16.837 5 16.2011 5.26339 15.7322 5.73223C15.2634 6.20107 15 6.83696 15 7.5V10H12.5C10.5109 10 8.60322 10.7902 7.1967 12.1967C5.79018 13.6032 5 15.5109 5 17.5V47.5C5 49.4891 5.79018 51.3968 7.1967 52.8033C8.60322 54.2098 10.5109 55 12.5 55H47.5C49.4891 55 51.3968 54.2098 52.8033 52.8033C54.2098 51.3968 55 49.4891 55 47.5V17.5C55 15.5109 54.2098 13.6032 52.8033 12.1967C51.3968 10.7902 49.4891 10 47.5 10ZM50 47.5C50 48.163 49.7366 48.7989 49.2678 49.2678C48.7989 49.7366 48.163 50 47.5 50H12.5C11.837 50 11.2011 49.7366 10.7322 49.2678C10.2634 48.7989 10 48.163 10 47.5V25H50V47.5ZM50 20H10V17.5C10 16.837 10.2634 16.2011 10.7322 15.7322C11.2011 15.2634 11.837 15 12.5 15H47.5C48.163 15 48.7989 15.2634 49.2678 15.7322C49.7366 16.2011 50 16.837 50 17.5V20ZM17.5 45C17.9945 45 18.4778 44.8534 18.8889 44.5787C19.3 44.304 19.6205 43.9135 19.8097 43.4567C19.9989 42.9999 20.0484 42.4972 19.952 42.0123C19.8555 41.5273 19.6174 41.0819 19.2678 40.7322C18.9181 40.3826 18.4727 40.1445 17.9877 40.048C17.5028 39.9516 17.0001 40.0011 16.5433 40.1903C16.0865 40.3795 15.696 40.7 15.4213 41.1111C15.1466 41.5222 15 42.0056 15 42.5C15 43.163 15.2634 43.7989 15.7322 44.2678C16.2011 44.7366 16.837 45 17.5 45Z" fill="#616161"/>
</svg>
